<svg width="32" height="32" viewBox="0 0 32 32" fill="none" xmlns="http://www.w3.org/2000/svg">
  <path d="M6 8C6 6.89543 6.89543 6 8 6H24C25.1046 6 26 6.89543 26 8V24C26 25.1046 25.1046 26 24 26H8C6.89543 26 6 25.1046 6 24V8Z" fill="url(#paint0_linear)"/>
  <path d="M9 4C9 3.44772 9.44772 3 10 3H22C22.5523 3 23 3.44772 23 4V6H9V4Z" fill="url(#paint1_linear)"/>
  <path d="M14 14H12V16H14V14Z" fill="white"/>
  <path d="M18 14H16V16H18V14Z" fill="white"/>
  <path d="M20 14H22V16H20V14Z" fill="white"/>
  <path d="M14 18H12V20H14V18Z" fill="white"/>
  <path d="M18 18H16V20H18V18Z" fill="white"/>
  <path d="M20 18H22V20H20V18Z" fill="white"/>
  <circle cx="22" cy="19" r="6" fill="url(#paint2_linear)"/>
  <path d="M20 19L21.5 20.5L24 18" stroke="white" stroke-width="1.5" stroke-linecap="round" stroke-linejoin="round"/>
  <defs>
    <linearGradient id="paint0_linear" x1="6" y1="6" x2="26" y2="26" gradientUnits="userSpaceOnUse">
      <stop stop-color="#0c87e8"/>
      <stop offset="1" stop-color="#22C55E"/>
    </linearGradient>
    <linearGradient id="paint1_linear" x1="9" y1="3" x2="23" y2="6" gradientUnits="userSpaceOnUse">
      <stop stop-color="#0c87e8"/>
      <stop offset="1" stop-color="#22C55E"/>
    </linearGradient>
    <linearGradient id="paint2_linear" x1="16" y1="13" x2="28" y2="25" gradientUnits="userSpaceOnUse">
      <stop stop-color="#22C55E"/>
      <stop offset="1" stop-color="#15803D"/>
    </linearGradient>
  </defs>
</svg>
